<?xml version="1.0" standalone="no"?>
<!DOCTYPE svg PUBLIC "-//W3C//DTD SVG 20010904//EN"
 "http://www.w3.org/TR/2001/REC-SVG-20010904/DTD/svg10.dtd">
<svg version="1.0" xmlns="http://www.w3.org/2000/svg"
 width="150.000000pt" height="148.000000pt" viewBox="0 0 150.000000 148.000000"
 preserveAspectRatio="xMidYMid meet">

<g transform="translate(0.000000,148.000000) scale(0.100000,-0.100000)"
fill="#097186" stroke="none">
<path d="M455 1460 c-174 -27 -322 -136 -394 -291 -70 -148 -67 -304 7 -457
32 -67 139 -180 199 -211 24 -12 43 -25 43 -29 -1 -4 -24 -22 -53 -40 -79 -50
-167 -137 -167 -166 0 -41 10 -54 79 -105 178 -132 399 -180 619 -135 84 17
201 67 255 108 19 15 60 33 91 41 180 47 314 193 346 377 31 175 -57 370 -210
468 -58 37 -155 70 -208 70 -36 1 -38 2 -75 80 -95 202 -318 323 -532 290z
m215 -60 c55 -16 170 -83 170 -98 0 -4 -45 -52 -100 -107 -98 -98 -99 -99
-120 -80 -34 31 -87 150 -100 224 -6 39 -9 74 -6 79 8 13 88 3 156 -18z m-195
-27 c15 -110 52 -205 106 -274 l28 -36 -42 -41 -42 -42 -160 161 -160 160 25
20 c52 41 174 95 222 98 13 1 18 -11 23 -46z m-22 -465 l-42 -41 -35 27 c-58
44 -153 84 -229 96 -40 7 -77 14 -84 15 -26 8 29 160 83 231 l27 35 161 -160
161 -161 -42 -42z m486 273 c17 -33 31 -65 31 -73 0 -10 -22 -21 -63 -32 -35
-9 -82 -28 -106 -42 -54 -30 -56 -30 -99 2 l-34 27 103 103 c118 118 113 118
168 15z m170 -137 c20 -4 31 -12 31 -23 -1 -16 -99 -91 -120 -91 -16 0 -120
79 -120 91 0 5 10 14 23 19 26 10 141 13 186 4z m-434 -40 l35 -26 -42 -49
-42 -50 -35 35 -35 36 39 40 c21 22 41 40 43 40 2 0 19 -12 37 -26z m175 -2
c0 -5 34 -32 75 -61 l75 -52 0 -53 0 -53 -65 -42 -66 -43 -54 23 c-51 21 -55
25 -76 81 -12 33 -28 62 -36 65 -7 3 -13 10 -13 17 0 16 66 79 110 105 38 23
50 26 50 13z m393 -14 c61 -41 78 -60 66 -75 -6 -7 -21 -48 -34 -90 -20 -72
-25 -80 -63 -101 l-41 -23 -65 43 -66 43 0 51 0 52 75 51 c41 29 75 56 75 62
0 15 20 10 53 -13z m-1070 -43 c65 -17 127 -46 176 -82 l33 -26 -103 -103
c-118 -118 -113 -118 -168 -15 -33 63 -61 157 -61 208 0 31 2 33 33 33 18 0
59 -7 90 -15z m409 -169 c-12 -37 -22 -78 -22 -91 0 -32 -16 -32 -24 -1 -3 14
-26 54 -50 89 l-44 64 41 42 42 41 39 -39 39 -40 -21 -65z m819 39 c34 -69 49
-148 30 -159 -14 -9 -131 71 -131 90 0 8 7 41 17 74 22 81 42 80 84 -5z m-701
-21 c11 -25 20 -51 20 -58 0 -6 -22 -34 -49 -60 -62 -61 -82 -58 -70 11 7 45
31 122 44 144 14 21 37 6 55 -37z m-256 -27 c35 -45 74 -133 82 -184 6 -40 5
-42 -22 -48 -16 -4 -55 -14 -86 -22 l-57 -15 -64 35 c-105 59 -105 54 9 168
54 54 102 99 106 99 4 0 18 -15 32 -33z m639 -57 c56 -34 58 -36 52 -72 -3
-20 -11 -54 -18 -75 l-12 -38 -84 0 -85 0 -18 60 c-10 33 -18 65 -18 72 0 12
110 94 120 90 3 -1 31 -18 63 -37z m-258 -36 c28 -11 34 -21 54 -94 12 -45 21
-84 19 -85 -2 -2 -30 5 -63 17 -32 11 -98 24 -147 30 -73 9 -88 14 -88 29 0
11 6 16 18 13 11 -3 37 15 77 56 63 63 61 63 130 34z m513 -19 c37 -25 77 -45
90 -45 17 0 22 -4 19 -17 -3 -10 -8 -35 -12 -55 -10 -62 -35 -112 -48 -99 -6
6 -46 11 -97 11 -81 0 -88 2 -113 28 -32 34 -32 37 -7 122 17 56 25 69 52 82
18 9 37 17 41 17 4 1 38 -19 75 -44z m-547 -171 c30 -9 84 -32 121 -51 77 -40
208 -150 208 -175 0 -21 -120 -110 -202 -148 -174 -82 -418 -80 -593 4 -87 41
-195 122 -195 145 0 28 137 138 225 182 135 67 299 83 436 43z m353 -33 l28
-29 -22 -43 c-13 -24 -24 -46 -26 -48 -2 -2 -25 15 -51 39 -26 23 -69 55 -95
72 -27 17 -48 33 -48 35 0 2 42 3 93 3 90 0 94 -1 121 -29z m220 -58 c12 -31
-142 -163 -191 -163 -24 0 -19 64 9 123 l28 57 74 0 c60 0 75 -3 80 -17z"/>
<path d="M387 344 c-4 -4 -7 -15 -7 -25 0 -11 -9 -19 -22 -21 -29 -4 -30 -32
-1 -36 14 -2 23 -11 25 -25 4 -29 32 -28 36 1 3 17 10 22 32 22 22 0 29 -5 32
-22 2 -13 10 -23 18 -23 8 0 16 10 18 23 5 32 59 32 64 0 2 -13 10 -23 18 -23
8 0 16 10 18 23 3 17 10 22 33 22 25 0 29 -4 29 -26 0 -33 33 -30 38 4 3 17
10 22 33 22 25 0 29 -4 29 -26 0 -32 33 -30 38 3 2 14 12 23 25 25 29 4 29 32
0 36 -14 2 -23 11 -25 25 -4 29 -32 28 -36 0 -3 -18 -10 -23 -32 -23 -22 0
-29 5 -32 23 -2 12 -10 22 -18 22 -8 0 -16 -10 -18 -22 -5 -33 -59 -33 -64 0
-2 12 -10 22 -18 22 -8 0 -16 -10 -18 -22 -5 -33 -59 -33 -64 0 -2 12 -10 22
-18 22 -8 0 -16 -10 -18 -22 -5 -32 -59 -33 -64 -1 -3 22 -19 33 -31 22z"/>
</g>
</svg>
