<?xml version="1.0" standalone="no"?>
<!DOCTYPE svg PUBLIC "-//W3C//DTD SVG 20010904//EN"
 "http://www.w3.org/TR/2001/REC-SVG-20010904/DTD/svg10.dtd">
<svg version="1.0" xmlns="http://www.w3.org/2000/svg"
 width="580" height="450" viewBox="0 0 580 450"
 preserveAspectRatio="xMidYMid meet">

<g transform="translate(0,450) scale(0.1,-0.1)"
fill="#097186" stroke="none">
<path d="M2575 3560 c-174 -27 -322 -136 -394 -291 -70 -148 -67 -304 7 -457
32 -67 139 -180 200 -211 23 -12 42 -25 42 -29 -1 -4 -24 -22 -53 -40 -79 -50
-167 -137 -167 -166 0 -41 10 -54 79 -105 178 -132 399 -180 619 -135 84 17
201 67 255 108 19 15 60 33 91 41 180 47 314 193 346 377 31 175 -57 370 -210
468 -58 37 -155 70 -208 70 -36 1 -38 2 -75 80 -95 202 -318 323 -532 290z
m215 -60 c55 -16 170 -83 170 -98 0 -4 -45 -52 -100 -107 -98 -98 -99 -99
-120 -80 -34 31 -87 150 -100 224 -6 39 -9 74 -6 79 8 13 88 3 156 -18z m-195
-27 c15 -110 52 -205 106 -274 l28 -36 -42 -41 -42 -42 -160 161 -160 160 25
20 c52 41 174 95 222 98 13 1 18 -11 23 -46z m-22 -465 l-42 -41 -35 27 c-58
44 -153 84 -229 96 -40 7 -77 14 -84 15 -26 8 29 160 83 231 l27 35 161 -160
161 -161 -42 -42z m486 273 c17 -33 31 -65 31 -73 0 -10 -22 -21 -63 -32 -35
-9 -82 -28 -106 -42 -54 -30 -56 -30 -99 2 l-34 27 103 103 c118 118 113 118
168 15z m170 -137 c20 -4 31 -12 31 -23 -1 -16 -99 -91 -120 -91 -16 0 -120
79 -120 91 0 5 10 14 23 19 26 10 141 13 186 4z m-434 -40 l35 -26 -42 -49
-42 -50 -35 35 -35 36 39 40 c21 22 41 40 43 40 2 0 19 -12 37 -26z m175 -2
c0 -5 34 -32 75 -61 l75 -52 0 -53 0 -53 -65 -42 -66 -43 -54 23 c-51 21 -55
25 -76 81 -12 33 -28 62 -36 65 -7 3 -13 10 -13 17 0 16 66 79 110 105 38 23
50 26 50 13z m393 -14 c61 -41 78 -60 66 -75 -6 -7 -21 -48 -34 -90 -20 -72
-25 -80 -63 -101 l-41 -23 -65 43 -66 43 0 51 0 52 75 51 c41 29 75 56 75 62
0 15 20 10 53 -13z m-1070 -43 c65 -17 127 -46 176 -82 l33 -26 -103 -103
c-118 -118 -113 -118 -168 -15 -33 63 -61 157 -61 208 0 31 2 33 33 33 18 0
59 -7 90 -15z m409 -169 c-12 -37 -22 -78 -22 -91 0 -32 -16 -32 -24 -1 -3 14
-26 54 -50 89 l-44 64 41 42 42 41 39 -39 39 -40 -21 -65z m819 39 c34 -69 49
-148 30 -159 -14 -9 -131 71 -131 90 0 8 7 41 17 74 22 81 42 80 84 -5z m-701
-21 c11 -25 20 -51 20 -58 0 -6 -22 -34 -49 -60 -62 -61 -82 -58 -70 11 7 45
31 122 44 144 14 21 37 6 55 -37z m-256 -27 c35 -45 74 -133 82 -184 6 -40 5
-42 -22 -48 -16 -4 -55 -14 -86 -22 l-57 -15 -64 35 c-105 59 -105 54 9 168
54 54 102 99 106 99 4 0 18 -15 32 -33z m639 -57 c56 -34 58 -36 52 -72 -3
-20 -11 -54 -18 -75 l-12 -38 -84 0 -85 0 -18 60 c-10 33 -18 65 -18 72 0 12
110 94 120 90 3 -1 31 -18 63 -37z m-258 -36 c28 -11 34 -21 54 -94 12 -45 21
-84 19 -85 -2 -2 -30 5 -63 17 -32 11 -98 24 -147 30 -73 9 -88 14 -88 29 0
11 6 16 18 13 11 -3 37 15 77 56 63 63 61 63 130 34z m513 -19 c37 -25 77 -45
90 -45 17 0 22 -4 19 -17 -3 -10 -8 -35 -12 -55 -10 -62 -35 -112 -48 -99 -6
6 -46 11 -97 11 -81 0 -88 2 -113 28 -32 34 -32 37 -7 122 17 56 25 69 52 82
18 9 37 17 41 17 4 1 38 -19 75 -44z m-547 -171 c30 -9 84 -32 121 -51 77 -40
208 -150 208 -175 0 -21 -120 -110 -202 -148 -174 -82 -418 -80 -593 4 -87 41
-195 122 -195 145 0 28 137 138 225 182 135 67 299 83 436 43z m353 -33 l28
-29 -22 -43 c-13 -24 -24 -46 -26 -48 -2 -2 -25 15 -51 39 -26 23 -69 55 -95
72 -27 17 -48 33 -48 35 0 2 42 3 93 3 90 0 94 -1 121 -29z m220 -58 c12 -31
-142 -163 -191 -163 -24 0 -19 64 9 123 l28 57 74 0 c60 0 75 -3 80 -17z"/>
<path d="M2507 2444 c-4 -4 -7 -15 -7 -25 0 -11 -9 -19 -22 -21 -29 -4 -30
-32 -1 -36 14 -2 23 -11 25 -25 4 -29 32 -28 36 1 3 17 10 22 32 22 22 0 29
-5 32 -22 2 -13 10 -23 18 -23 8 0 16 10 18 23 3 17 10 22 32 22 22 0 29 -5
32 -22 2 -13 10 -23 18 -23 8 0 16 10 18 23 3 17 10 22 33 22 25 0 29 -4 29
-26 0 -33 33 -30 38 4 3 17 10 22 33 22 25 0 29 -4 29 -26 0 -32 33 -30 38 3
2 14 12 23 25 25 29 4 29 32 0 36 -14 2 -23 11 -25 25 -4 29 -32 28 -36 0 -3
-18 -10 -23 -32 -23 -22 0 -29 5 -32 23 -2 12 -10 22 -18 22 -8 0 -16 -10 -18
-22 -3 -18 -10 -23 -32 -23 -22 0 -29 5 -32 23 -2 12 -10 22 -18 22 -8 0 -16
-10 -18 -22 -3 -18 -10 -23 -32 -23 -22 0 -29 5 -32 23 -2 12 -10 22 -18 22
-8 0 -16 -10 -18 -22 -5 -32 -59 -33 -64 -1 -3 22 -19 33 -31 22z"/>
<path d="M3206 1792 c-2 -4 -7 -24 -11 -45 l-7 -37 58 -1 c102 -1 102 5 9
-171 -55 -104 -82 -164 -78 -178 5 -19 13 -20 129 -20 68 0 124 4 124 8 0 4
-15 22 -33 40 -25 24 -42 32 -70 32 -20 0 -37 4 -37 8 0 5 25 46 56 92 58 87
119 200 108 200 -4 0 -1 7 6 15 11 13 8 15 -19 15 -40 0 -40 16 -1 24 17 3 30
10 30 16 0 12 -256 14 -264 2z"/>
<path d="M4073 1793 c-39 -4 -43 -7 -43 -32 0 -20 12 -38 45 -68 l45 -40 0 73
c0 41 -1 73 -2 72 -2 -1 -22 -3 -45 -5z"/>
<path d="M1484 1756 c-27 -27 -34 -42 -34 -74 0 -64 16 -92 96 -169 65 -63 74
-75 65 -92 -6 -11 -19 -22 -30 -26 -24 -7 -70 10 -77 30 -8 19 -48 20 -63 1
-17 -20 11 -71 52 -96 39 -24 105 -27 114 -4 3 8 12 13 20 10 16 -6 59 35 69
66 14 46 -5 86 -72 145 -95 83 -115 129 -70 158 18 12 29 13 52 5 34 -13 74
-5 74 14 0 8 -14 26 -31 40 -24 20 -41 26 -81 26 -44 0 -54 -4 -84 -34z"/>
<path d="M1753 1780 c-23 -9 -23 -10 -23 -240 l0 -231 43 3 42 3 3 113 3 113
47 20 c95 41 124 97 87 169 -16 31 -49 55 -65 45 -5 -3 -11 -1 -15 5 -8 12
-92 12 -122 0z m145 -99 c4 -29 -20 -51 -55 -51 -20 0 -23 5 -23 41 l0 40 38
-3 c31 -2 38 -7 40 -27z"/>
<path d="M2374 1778 c-4 -6 -10 -58 -12 -116 -4 -94 -3 -106 17 -133 13 -18
17 -29 9 -29 -9 0 -9 -3 0 -12 20 -20 13 -32 -8 -13 -20 18 -20 17 -20 -68 l0
-87 35 0 34 0 3 110 c2 66 7 110 13 109 6 -1 27 -46 47 -101 20 -55 40 -104
45 -109 4 -4 21 -5 36 -2 21 4 26 10 21 22 -21 50 -74 204 -74 214 0 7 13 21
30 30 42 25 58 82 36 129 -24 49 -62 68 -139 68 -40 0 -69 -5 -73 -12z m140
-74 c19 -18 19 -20 6 -45 -13 -24 -68 -26 -77 -3 -9 23 14 64 36 64 11 0 27
-7 35 -16z"/>
<path d="M2643 1782 c-8 -5 -10 -21 -6 -44 5 -36 7 -37 52 -40 l46 -3 5 -53
c3 -30 2 -56 -2 -58 -4 -3 -8 -12 -8 -21 0 -14 2 -14 18 -1 27 23 42 30 42 19
0 -5 -13 -18 -30 -28 l-30 -17 0 -113 0 -113 39 0 c35 0 39 3 45 31 3 17 6 99
6 181 0 84 5 158 10 169 7 11 21 19 38 19 38 0 51 11 58 48 l7 32 -139 0 c-77
0 -144 -4 -151 -8z"/>
<path d="M4165 1768 c-3 -13 -4 -120 -3 -238 l3 -215 45 -3 c71 -4 134 10 138
32 3 12 0 16 -7 11 -7 -4 -23 0 -36 9 -13 9 -33 16 -45 16 -14 0 -20 7 -20 22
0 12 -12 35 -27 50 -21 22 -23 28 -10 28 8 0 19 -6 24 -12 5 -9 9 -3 13 17 5
27 9 30 48 33 39 3 42 5 42 33 0 28 -2 29 -45 29 -50 0 -51 2 -39 94 7 45 7
46 45 46 55 0 69 8 69 41 l0 29 -95 0 c-90 0 -95 -1 -100 -22z"/>
<path d="M2111 1766 l-24 -13 24 -17 c13 -9 27 -16 31 -16 19 0 84 -54 95 -78
15 -33 17 -141 4 -176 -7 -18 -6 -28 5 -36 21 -18 17 -32 -6 -20 -11 6 -30 8
-44 4 -13 -3 -37 1 -53 9 -28 15 -29 18 -31 94 -1 43 2 94 8 112 8 30 7 38
-13 60 -21 23 -21 24 -2 17 19 -7 19 -6 -2 15 -19 20 -24 21 -39 8 -58 -48
-77 -216 -34 -304 39 -81 130 -122 202 -92 65 27 108 154 93 273 -5 44 -14 64
-41 93 -18 21 -30 41 -27 45 4 4 0 4 -8 1 -9 -3 -23 3 -34 15 -21 23 -68 26
-104 6z m-16 -326 c3 -5 2 -10 -4 -10 -5 0 -13 5 -16 10 -3 6 -2 10 4 10 5 0
13 -4 16 -10z"/>
<path d="M3612 1766 c-27 -15 -25 -17 60 -65 47 -26 59 -39 68 -69 14 -50 13
-135 -2 -168 -11 -23 -10 -28 7 -40 10 -8 16 -17 12 -21 -4 -3 -15 2 -26 11
-12 11 -21 14 -26 7 -9 -16 -42 -14 -69 4 -20 13 -23 24 -25 98 -1 46 3 95 8
109 8 22 6 32 -10 52 -14 17 -16 26 -8 26 9 0 8 5 -4 17 -15 16 -18 16 -36 -1
-72 -65 -73 -271 -3 -350 21 -24 89 -55 120 -56 13 0 39 7 58 16 67 32 111
183 84 293 -10 43 -21 59 -70 101 -61 53 -93 61 -138 36z m-17 -326 c3 -5 2
-10 -4 -10 -5 0 -13 5 -16 10 -3 6 -2 10 4 10 5 0 13 -4 16 -10z"/>
<path d="M3867 1773 c-8 -8 -7 -202 2 -358 l6 -110 30 0 30 0 3 118 c1 64 6
117 10 117 4 0 27 -48 52 -108 43 -100 48 -107 77 -110 28 -3 31 0 36 35 4 21
7 92 7 158 0 120 0 120 -26 132 -26 12 -26 12 -9 -7 10 -11 16 -20 14 -21 -2
0 -12 -2 -22 -4 -9 -2 -15 0 -12 5 3 4 -4 10 -15 13 -15 4 -20 -1 -22 -27 l-3
-31 -18 40 c-10 22 -26 63 -35 92 -11 34 -25 55 -40 62 -26 12 -55 14 -65 4z"/>
<path d="M3430 1395 c7 -8 17 -15 22 -15 6 0 5 7 -2 15 -7 8 -17 15 -22 15 -6
0 -5 -7 2 -15z"/>
</g>
</svg>
